<?xml version="1.0" encoding="utf-8" standalone="no"?>
<!DOCTYPE svg PUBLIC "-//W3C//DTD SVG 1.1//EN"
  "http://www.w3.org/Graphics/SVG/1.1/DTD/svg11.dtd">
<!-- Created with matplotlib (http://matplotlib.org/) -->
<svg height="315pt" version="1.1" viewBox="0 0 420 315" width="420pt" xmlns="http://www.w3.org/2000/svg" xmlns:xlink="http://www.w3.org/1999/xlink">
 <defs>
  <style type="text/css">
*{stroke-linecap:butt;stroke-linejoin:round;}
  </style>
 </defs>
 <g id="figure_1">
  <g id="patch_1">
   <path d="M 0 315.84 
L 420.2485 315.84 
L 420.2485 0 
L 0 0 
z
" style="fill:#ffffff;"/>
  </g>
  <g id="axes_1">
   <g id="patch_2">
    <path d="M 76.5525 224.64 
L 411.3525 224.64 
L 411.3525 7.2 
L 76.5525 7.2 
z
" style="fill:#ffffff;"/>
   </g>
   <g id="table_1">
    <g id="patch_3">
     <path d="M 76.5525 236.64 
L 143.5125 236.64 
L 143.5125 224.64 
L 76.5525 224.64 
z
" style="fill:#ffffff;"/>
    </g>
    <g id="text_1">
     <text style="fill:#262626;font-family:Arial;font-size:10px;font-style:normal;font-weight:400;text-anchor:middle;" transform="rotate(-0, 110.0325, 233.225156)" x="110.0325" y="233.225156">7d</text>
    </g>
    <g id="patch_4">
     <path d="M 143.5125 236.64 
L 210.4725 236.64 
L 210.4725 224.64 
L 143.5125 224.64 
z
" style="fill:#ffffff;"/>
    </g>
    <g id="text_2">
     <text style="fill:#262626;font-family:Arial;font-size:10px;font-style:normal;font-weight:400;text-anchor:middle;" transform="rotate(-0, 176.9925, 233.225156)" x="176.9925" y="233.225156">12d</text>
    </g>
    <g id="patch_5">
     <path d="M 210.4725 236.64 
L 277.4325 236.64 
L 277.4325 224.64 
L 210.4725 224.64 
z
" style="fill:#ffffff;"/>
    </g>
    <g id="text_3">
     <text style="fill:#262626;font-family:Arial;font-size:10px;font-style:normal;font-weight:400;text-anchor:middle;" transform="rotate(-0, 243.9525, 233.225156)" x="243.9525" y="233.225156">17d</text>
    </g>
    <g id="patch_6">
     <path d="M 277.4325 236.64 
L 344.3925 236.64 
L 344.3925 224.64 
L 277.4325 224.64 
z
" style="fill:#ffffff;"/>
    </g>
    <g id="text_4">
     <text style="fill:#262626;font-family:Arial;font-size:10px;font-style:normal;font-weight:400;text-anchor:middle;" transform="rotate(-0, 310.9125, 233.225156)" x="310.9125" y="233.225156">22d</text>
    </g>
    <g id="patch_7">
     <path d="M 344.3925 236.64 
L 411.3525 236.64 
L 411.3525 224.64 
L 344.3925 224.64 
z
" style="fill:#ffffff;"/>
    </g>
    <g id="text_5">
     <text style="fill:#262626;font-family:Arial;font-size:10px;font-style:normal;font-weight:400;text-anchor:middle;" transform="rotate(-0, 377.8725, 233.225156)" x="377.8725" y="233.225156">27d</text>
    </g>
    <g id="patch_8">
     <path d="M 7.2 248.64 
L 76.5525 248.64 
L 76.5525 236.64 
L 7.2 236.64 
z
" style="fill:#ffffff;"/>
    </g>
    <g id="text_6">
     <text style="fill:#262626;font-family:Arial;font-size:10px;font-style:normal;font-weight:400;text-anchor:start;" transform="rotate(-0, 14.13525, 245.225156)" x="14.13525" y="245.225156">E KDE</text>
    </g>
    <g id="patch_9">
     <path d="M 76.5525 248.64 
L 143.5125 248.64 
L 143.5125 236.64 
L 76.5525 236.64 
z
" style="fill:#ffffff;"/>
    </g>
    <g id="text_7">
     <text style="fill:#262626;font-family:Arial;font-size:10px;font-style:normal;font-weight:400;text-anchor:end;" transform="rotate(-0, 136.8165, 245.225156)" x="136.8165" y="245.225156">92.9</text>
    </g>
    <g id="patch_10">
     <path d="M 143.5125 248.64 
L 210.4725 248.64 
L 210.4725 236.64 
L 143.5125 236.64 
z
" style="fill:#ffffff;"/>
    </g>
    <g id="text_8">
     <text style="fill:#262626;font-family:Arial;font-size:10px;font-style:normal;font-weight:400;text-anchor:end;" transform="rotate(-0, 203.7765, 245.225156)" x="203.7765" y="245.225156">74.0</text>
    </g>
    <g id="patch_11">
     <path d="M 210.4725 248.64 
L 277.4325 248.64 
L 277.4325 236.64 
L 210.4725 236.64 
z
" style="fill:#ffffff;"/>
    </g>
    <g id="text_9">
     <text style="fill:#262626;font-family:Arial;font-size:10px;font-style:normal;font-weight:400;text-anchor:end;" transform="rotate(-0, 270.7365, 245.225156)" x="270.7365" y="245.225156">42.7</text>
    </g>
    <g id="patch_12">
     <path d="M 277.4325 248.64 
L 344.3925 248.64 
L 344.3925 236.64 
L 277.4325 236.64 
z
" style="fill:#ffffff;"/>
    </g>
    <g id="text_10">
     <text style="fill:#262626;font-family:Arial;font-size:10px;font-style:normal;font-weight:400;text-anchor:end;" transform="rotate(-0, 337.6965, 245.225156)" x="337.6965" y="245.225156">17.7</text>
    </g>
    <g id="patch_13">
     <path d="M 344.3925 248.64 
L 411.3525 248.64 
L 411.3525 236.64 
L 344.3925 236.64 
z
" style="fill:#ffffff;"/>
    </g>
    <g id="text_11">
     <text style="fill:#262626;font-family:Arial;font-size:10px;font-style:normal;font-weight:400;text-anchor:end;" transform="rotate(-0, 404.6565, 245.225156)" x="404.6565" y="245.225156">8.3</text>
    </g>
    <g id="patch_14">
     <path d="M 7.2 260.64 
L 76.5525 260.64 
L 76.5525 248.64 
L 7.2 248.64 
z
" style="fill:#ffffff;"/>
    </g>
    <g id="text_12">
     <text style="fill:#262626;font-family:Arial;font-size:10px;font-style:normal;font-weight:400;text-anchor:start;" transform="rotate(-0, 14.13525, 257.225156)" x="14.13525" y="257.225156">E Gauss</text>
    </g>
    <g id="patch_15">
     <path d="M 76.5525 260.64 
L 143.5125 260.64 
L 143.5125 248.64 
L 76.5525 248.64 
z
" style="fill:#ffffff;"/>
    </g>
    <g id="text_13">
     <text style="fill:#262626;font-family:Arial;font-size:10px;font-style:normal;font-weight:400;text-anchor:end;" transform="rotate(-0, 136.8165, 257.225156)" x="136.8165" y="257.225156">92.4</text>
    </g>
    <g id="patch_16">
     <path d="M 143.5125 260.64 
L 210.4725 260.64 
L 210.4725 248.64 
L 143.5125 248.64 
z
" style="fill:#ffffff;"/>
    </g>
    <g id="text_14">
     <text style="fill:#262626;font-family:Arial;font-size:10px;font-style:normal;font-weight:400;text-anchor:end;" transform="rotate(-0, 203.7765, 257.225156)" x="203.7765" y="257.225156">72.7</text>
    </g>
    <g id="patch_17">
     <path d="M 210.4725 260.64 
L 277.4325 260.64 
L 277.4325 248.64 
L 210.4725 248.64 
z
" style="fill:#ffffff;"/>
    </g>
    <g id="text_15">
     <text style="fill:#262626;font-family:Arial;font-size:10px;font-style:normal;font-weight:400;text-anchor:end;" transform="rotate(-0, 270.7365, 257.225156)" x="270.7365" y="257.225156">42.3</text>
    </g>
    <g id="patch_18">
     <path d="M 277.4325 260.64 
L 344.3925 260.64 
L 344.3925 248.64 
L 277.4325 248.64 
z
" style="fill:#ffffff;"/>
    </g>
    <g id="text_16">
     <text style="fill:#262626;font-family:Arial;font-size:10px;font-style:normal;font-weight:400;text-anchor:end;" transform="rotate(-0, 337.6965, 257.225156)" x="337.6965" y="257.225156">18.1</text>
    </g>
    <g id="patch_19">
     <path d="M 344.3925 260.64 
L 411.3525 260.64 
L 411.3525 248.64 
L 344.3925 248.64 
z
" style="fill:#ffffff;"/>
    </g>
    <g id="text_17">
     <text style="fill:#262626;font-family:Arial;font-size:10px;font-style:normal;font-weight:400;text-anchor:end;" transform="rotate(-0, 404.6565, 257.225156)" x="404.6565" y="257.225156">8.4</text>
    </g>
    <g id="patch_20">
     <path d="M 7.2 272.64 
L 76.5525 272.64 
L 76.5525 260.64 
L 7.2 260.64 
z
" style="fill:#ffffff;"/>
    </g>
    <g id="text_18">
     <text style="fill:#262626;font-family:Arial;font-size:10px;font-style:normal;font-weight:400;text-anchor:start;" transform="rotate(-0, 14.13525, 269.225156)" x="14.13525" y="269.225156">PR KDE</text>
    </g>
    <g id="patch_21">
     <path d="M 76.5525 272.64 
L 143.5125 272.64 
L 143.5125 260.64 
L 76.5525 260.64 
z
" style="fill:#ffffff;"/>
    </g>
    <g id="text_19">
     <text style="fill:#262626;font-family:Arial;font-size:10px;font-style:normal;font-weight:400;text-anchor:end;" transform="rotate(-0, 136.8165, 269.225156)" x="136.8165" y="269.225156">92.9</text>
    </g>
    <g id="patch_22">
     <path d="M 143.5125 272.64 
L 210.4725 272.64 
L 210.4725 260.64 
L 143.5125 260.64 
z
" style="fill:#ffffff;"/>
    </g>
    <g id="text_20">
     <text style="fill:#262626;font-family:Arial;font-size:10px;font-style:normal;font-weight:400;text-anchor:end;" transform="rotate(-0, 203.7765, 269.225156)" x="203.7765" y="269.225156">72.8</text>
    </g>
    <g id="patch_23">
     <path d="M 210.4725 272.64 
L 277.4325 272.64 
L 277.4325 260.64 
L 210.4725 260.64 
z
" style="fill:#ffffff;"/>
    </g>
    <g id="text_21">
     <text style="fill:#262626;font-family:Arial;font-size:10px;font-style:normal;font-weight:400;text-anchor:end;" transform="rotate(-0, 270.7365, 269.225156)" x="270.7365" y="269.225156">43.1</text>
    </g>
    <g id="patch_24">
     <path d="M 277.4325 272.64 
L 344.3925 272.64 
L 344.3925 260.64 
L 277.4325 260.64 
z
" style="fill:#ffffff;"/>
    </g>
    <g id="text_22">
     <text style="fill:#262626;font-family:Arial;font-size:10px;font-style:normal;font-weight:400;text-anchor:end;" transform="rotate(-0, 337.6965, 269.225156)" x="337.6965" y="269.225156">17.6</text>
    </g>
    <g id="patch_25">
     <path d="M 344.3925 272.64 
L 411.3525 272.64 
L 411.3525 260.64 
L 344.3925 260.64 
z
" style="fill:#ffffff;"/>
    </g>
    <g id="text_23">
     <text style="fill:#262626;font-family:Arial;font-size:10px;font-style:normal;font-weight:400;text-anchor:end;" transform="rotate(-0, 404.6565, 269.225156)" x="404.6565" y="269.225156">7.8</text>
    </g>
    <g id="patch_26">
     <path d="M 7.2 284.64 
L 76.5525 284.64 
L 76.5525 272.64 
L 7.2 272.64 
z
" style="fill:#ffffff;"/>
    </g>
    <g id="text_24">
     <text style="fill:#262626;font-family:Arial;font-size:10px;font-style:normal;font-weight:400;text-anchor:start;" transform="rotate(-0, 14.13525, 281.225156)" x="14.13525" y="281.225156">PR Gauss</text>
    </g>
    <g id="patch_27">
     <path d="M 76.5525 284.64 
L 143.5125 284.64 
L 143.5125 272.64 
L 76.5525 272.64 
z
" style="fill:#ffffff;"/>
    </g>
    <g id="text_25">
     <text style="fill:#262626;font-family:Arial;font-size:10px;font-style:normal;font-weight:400;text-anchor:end;" transform="rotate(-0, 136.8165, 281.225156)" x="136.8165" y="281.225156">92.2</text>
    </g>
    <g id="patch_28">
     <path d="M 143.5125 284.64 
L 210.4725 284.64 
L 210.4725 272.64 
L 143.5125 272.64 
z
" style="fill:#ffffff;"/>
    </g>
    <g id="text_26">
     <text style="fill:#262626;font-family:Arial;font-size:10px;font-style:normal;font-weight:400;text-anchor:end;" transform="rotate(-0, 203.7765, 281.225156)" x="203.7765" y="281.225156">72.6</text>
    </g>
    <g id="patch_29">
     <path d="M 210.4725 284.64 
L 277.4325 284.64 
L 277.4325 272.64 
L 210.4725 272.64 
z
" style="fill:#ffffff;"/>
    </g>
    <g id="text_27">
     <text style="fill:#262626;font-family:Arial;font-size:10px;font-style:normal;font-weight:400;text-anchor:end;" transform="rotate(-0, 270.7365, 281.225156)" x="270.7365" y="281.225156">42.0</text>
    </g>
    <g id="patch_30">
     <path d="M 277.4325 284.64 
L 344.3925 284.64 
L 344.3925 272.64 
L 277.4325 272.64 
z
" style="fill:#ffffff;"/>
    </g>
    <g id="text_28">
     <text style="fill:#262626;font-family:Arial;font-size:10px;font-style:normal;font-weight:400;text-anchor:end;" transform="rotate(-0, 337.6965, 281.225156)" x="337.6965" y="281.225156">18.2</text>
    </g>
    <g id="patch_31">
     <path d="M 344.3925 284.64 
L 411.3525 284.64 
L 411.3525 272.64 
L 344.3925 272.64 
z
" style="fill:#ffffff;"/>
    </g>
    <g id="text_29">
     <text style="fill:#262626;font-family:Arial;font-size:10px;font-style:normal;font-weight:400;text-anchor:end;" transform="rotate(-0, 404.6565, 281.225156)" x="404.6565" y="281.225156">7.8</text>
    </g>
    <g id="patch_32">
     <path d="M 7.2 296.64 
L 76.5525 296.64 
L 76.5525 284.64 
L 7.2 284.64 
z
" style="fill:#ffffff;"/>
    </g>
    <g id="text_30">
     <text style="fill:#262626;font-family:Arial;font-size:10px;font-style:normal;font-weight:400;text-anchor:start;" transform="rotate(-0, 14.13525, 293.225156)" x="14.13525" y="293.225156">SNA E mean</text>
    </g>
    <g id="patch_33">
     <path d="M 76.5525 296.64 
L 143.5125 296.64 
L 143.5125 284.64 
L 76.5525 284.64 
z
" style="fill:#ffffff;"/>
    </g>
    <g id="text_31">
     <text style="fill:#262626;font-family:Arial;font-size:10px;font-style:normal;font-weight:400;text-anchor:end;" transform="rotate(-0, 136.8165, 293.225156)" x="136.8165" y="293.225156">91.2</text>
    </g>
    <g id="patch_34">
     <path d="M 143.5125 296.64 
L 210.4725 296.64 
L 210.4725 284.64 
L 143.5125 284.64 
z
" style="fill:#ffffff;"/>
    </g>
    <g id="text_32">
     <text style="fill:#262626;font-family:Arial;font-size:10px;font-style:normal;font-weight:400;text-anchor:end;" transform="rotate(-0, 203.7765, 293.225156)" x="203.7765" y="293.225156">72.5</text>
    </g>
    <g id="patch_35">
     <path d="M 210.4725 296.64 
L 277.4325 296.64 
L 277.4325 284.64 
L 210.4725 284.64 
z
" style="fill:#ffffff;"/>
    </g>
    <g id="text_33">
     <text style="fill:#262626;font-family:Arial;font-size:10px;font-style:normal;font-weight:400;text-anchor:end;" transform="rotate(-0, 270.7365, 293.225156)" x="270.7365" y="293.225156">42.2</text>
    </g>
    <g id="patch_36">
     <path d="M 277.4325 296.64 
L 344.3925 296.64 
L 344.3925 284.64 
L 277.4325 284.64 
z
" style="fill:#ffffff;"/>
    </g>
    <g id="text_34">
     <text style="fill:#262626;font-family:Arial;font-size:10px;font-style:normal;font-weight:400;text-anchor:end;" transform="rotate(-0, 337.6965, 293.225156)" x="337.6965" y="293.225156">18.5</text>
    </g>
    <g id="patch_37">
     <path d="M 344.3925 296.64 
L 411.3525 296.64 
L 411.3525 284.64 
L 344.3925 284.64 
z
" style="fill:#ffffff;"/>
    </g>
    <g id="text_35">
     <text style="fill:#262626;font-family:Arial;font-size:10px;font-style:normal;font-weight:400;text-anchor:end;" transform="rotate(-0, 404.6565, 293.225156)" x="404.6565" y="293.225156">8.0</text>
    </g>
    <g id="patch_38">
     <path d="M 7.2 308.64 
L 76.5525 308.64 
L 76.5525 296.64 
L 7.2 296.64 
z
" style="fill:#ffffff;"/>
    </g>
    <g id="text_36">
     <text style="fill:#262626;font-family:Arial;font-size:10px;font-style:normal;font-weight:400;text-anchor:start;" transform="rotate(-0, 14.13525, 305.225156)" x="14.13525" y="305.225156">SNA E max</text>
    </g>
    <g id="patch_39">
     <path d="M 76.5525 308.64 
L 143.5125 308.64 
L 143.5125 296.64 
L 76.5525 296.64 
z
" style="fill:#ffffff;"/>
    </g>
    <g id="text_37">
     <text style="fill:#262626;font-family:Arial;font-size:10px;font-style:normal;font-weight:400;text-anchor:end;" transform="rotate(-0, 136.8165, 305.225156)" x="136.8165" y="305.225156">93.5</text>
    </g>
    <g id="patch_40">
     <path d="M 143.5125 308.64 
L 210.4725 308.64 
L 210.4725 296.64 
L 143.5125 296.64 
z
" style="fill:#ffffff;"/>
    </g>
    <g id="text_38">
     <text style="fill:#262626;font-family:Arial;font-size:10px;font-style:normal;font-weight:400;text-anchor:end;" transform="rotate(-0, 203.7765, 305.225156)" x="203.7765" y="305.225156">73.6</text>
    </g>
    <g id="patch_41">
     <path d="M 210.4725 308.64 
L 277.4325 308.64 
L 277.4325 296.64 
L 210.4725 296.64 
z
" style="fill:#ffffff;"/>
    </g>
    <g id="text_39">
     <text style="fill:#262626;font-family:Arial;font-size:10px;font-style:normal;font-weight:400;text-anchor:end;" transform="rotate(-0, 270.7365, 305.225156)" x="270.7365" y="305.225156">41.8</text>
    </g>
    <g id="patch_42">
     <path d="M 277.4325 308.64 
L 344.3925 308.64 
L 344.3925 296.64 
L 277.4325 296.64 
z
" style="fill:#ffffff;"/>
    </g>
    <g id="text_40">
     <text style="fill:#262626;font-family:Arial;font-size:10px;font-style:normal;font-weight:400;text-anchor:end;" transform="rotate(-0, 337.6965, 305.225156)" x="337.6965" y="305.225156">18.0</text>
    </g>
    <g id="patch_43">
     <path d="M 344.3925 308.64 
L 411.3525 308.64 
L 411.3525 296.64 
L 344.3925 296.64 
z
" style="fill:#ffffff;"/>
    </g>
    <g id="text_41">
     <text style="fill:#262626;font-family:Arial;font-size:10px;font-style:normal;font-weight:400;text-anchor:end;" transform="rotate(-0, 404.6565, 305.225156)" x="404.6565" y="305.225156">8.0</text>
    </g>
   </g>
   <g id="matplotlib.axis_1">
    <g id="ytick_1">
     <g id="line2d_1">
      <path clip-path="url(#pcd0c4cbda4)" d="M 76.5525 224.64 
L 411.3525 224.64 
" style="fill:none;stroke:#cccccc;stroke-linecap:round;"/>
     </g>
     <g id="line2d_2"/>
     <g id="text_42">
      <text style="fill:#262626;font-family:Arial;font-size:10px;font-style:normal;font-weight:400;text-anchor:end;" transform="rotate(-0, 69.5525, 228.218906)" x="69.5525" y="228.218906">0</text>
     </g>
    </g>
    <g id="ytick_2">
     <g id="line2d_3">
      <path clip-path="url(#pcd0c4cbda4)" d="M 76.5525 180.348328 
L 411.3525 180.348328 
" style="fill:none;stroke:#cccccc;stroke-linecap:round;"/>
     </g>
     <g id="line2d_4"/>
     <g id="text_43">
      <text style="fill:#262626;font-family:Arial;font-size:10px;font-style:normal;font-weight:400;text-anchor:end;" transform="rotate(-0, 69.5525, 183.927234)" x="69.5525" y="183.927234">20</text>
     </g>
    </g>
    <g id="ytick_3">
     <g id="line2d_5">
      <path clip-path="url(#pcd0c4cbda4)" d="M 76.5525 136.056655 
L 411.3525 136.056655 
" style="fill:none;stroke:#cccccc;stroke-linecap:round;"/>
     </g>
     <g id="line2d_6"/>
     <g id="text_44">
      <text style="fill:#262626;font-family:Arial;font-size:10px;font-style:normal;font-weight:400;text-anchor:end;" transform="rotate(-0, 69.5525, 139.635561)" x="69.5525" y="139.635561">40</text>
     </g>
    </g>
    <g id="ytick_4">
     <g id="line2d_7">
      <path clip-path="url(#pcd0c4cbda4)" d="M 76.5525 91.764983 
L 411.3525 91.764983 
" style="fill:none;stroke:#cccccc;stroke-linecap:round;"/>
     </g>
     <g id="line2d_8"/>
     <g id="text_45">
      <text style="fill:#262626;font-family:Arial;font-size:10px;font-style:normal;font-weight:400;text-anchor:end;" transform="rotate(-0, 69.5525, 95.343889)" x="69.5525" y="95.343889">60</text>
     </g>
    </g>
    <g id="ytick_5">
     <g id="line2d_9">
      <path clip-path="url(#pcd0c4cbda4)" d="M 76.5525 47.47331 
L 411.3525 47.47331 
" style="fill:none;stroke:#cccccc;stroke-linecap:round;"/>
     </g>
     <g id="line2d_10"/>
     <g id="text_46">
      <text style="fill:#262626;font-family:Arial;font-size:10px;font-style:normal;font-weight:400;text-anchor:end;" transform="rotate(-0, 69.5525, 51.052217)" x="69.5525" y="51.052217">80</text>
     </g>
    </g>
    <g id="text_47">
     <text style="fill:#262626;font-family:Arial;font-size:11px;font-style:normal;font-weight:400;text-anchor:middle;" transform="rotate(-90, 52.115469, 115.92)" x="52.115469" y="115.92">FRET (%)</text>
    </g>
   </g>
   <g id="patch_44">
    <path clip-path="url(#pcd0c4cbda4)" d="M 93.2925 224.64 
L 98.8725 224.64 
L 98.8725 18.905182 
L 93.2925 18.905182 
z
" style="fill:#a6cee3;"/>
   </g>
   <g id="patch_45">
    <path clip-path="url(#pcd0c4cbda4)" d="M 160.2525 224.64 
L 165.8325 224.64 
L 165.8325 60.805104 
L 160.2525 60.805104 
z
" style="fill:#a6cee3;"/>
   </g>
   <g id="patch_46">
    <path clip-path="url(#pcd0c4cbda4)" d="M 227.2125 224.64 
L 232.7925 224.64 
L 232.7925 130.121571 
L 227.2125 130.121571 
z
" style="fill:#a6cee3;"/>
   </g>
   <g id="patch_47">
    <path clip-path="url(#pcd0c4cbda4)" d="M 294.1725 224.64 
L 299.7525 224.64 
L 299.7525 185.353287 
L 294.1725 185.353287 
z
" style="fill:#a6cee3;"/>
   </g>
   <g id="patch_48">
    <path clip-path="url(#pcd0c4cbda4)" d="M 361.1325 224.64 
L 366.7125 224.64 
L 366.7125 206.347539 
L 361.1325 206.347539 
z
" style="fill:#a6cee3;"/>
   </g>
   <g id="patch_49">
    <path clip-path="url(#pcd0c4cbda4)" d="M 98.8725 224.64 
L 104.4525 224.64 
L 104.4525 19.943821 
L 98.8725 19.943821 
z
" style="fill:#1f78b4;"/>
   </g>
   <g id="patch_50">
    <path clip-path="url(#pcd0c4cbda4)" d="M 165.8325 224.64 
L 171.4125 224.64 
L 171.4125 63.630913 
L 165.8325 63.630913 
z
" style="fill:#1f78b4;"/>
   </g>
   <g id="patch_51">
    <path clip-path="url(#pcd0c4cbda4)" d="M 232.7925 224.64 
L 238.3725 224.64 
L 238.3725 131.047267 
L 232.7925 131.047267 
z
" style="fill:#1f78b4;"/>
   </g>
   <g id="patch_52">
    <path clip-path="url(#pcd0c4cbda4)" d="M 299.7525 224.64 
L 305.3325 224.64 
L 305.3325 184.540534 
L 299.7525 184.540534 
z
" style="fill:#1f78b4;"/>
   </g>
   <g id="patch_53">
    <path clip-path="url(#pcd0c4cbda4)" d="M 366.7125 224.64 
L 372.2925 224.64 
L 372.2925 206.044141 
L 366.7125 206.044141 
z
" style="fill:#1f78b4;"/>
   </g>
   <g id="patch_54">
    <path clip-path="url(#pcd0c4cbda4)" d="M 104.4525 224.64 
L 110.0325 224.64 
L 110.0325 18.964975 
L 104.4525 18.964975 
z
" style="fill:#b2df8a;"/>
   </g>
   <g id="patch_55">
    <path clip-path="url(#pcd0c4cbda4)" d="M 171.4125 224.64 
L 176.9925 224.64 
L 176.9925 63.478106 
L 171.4125 63.478106 
z
" style="fill:#b2df8a;"/>
   </g>
   <g id="patch_56">
    <path clip-path="url(#pcd0c4cbda4)" d="M 238.3725 224.64 
L 243.9525 224.64 
L 243.9525 129.102863 
L 238.3725 129.102863 
z
" style="fill:#b2df8a;"/>
   </g>
   <g id="patch_57">
    <path clip-path="url(#pcd0c4cbda4)" d="M 305.3325 224.64 
L 310.9125 224.64 
L 310.9125 185.614607 
L 305.3325 185.614607 
z
" style="fill:#b2df8a;"/>
   </g>
   <g id="patch_58">
    <path clip-path="url(#pcd0c4cbda4)" d="M 372.2925 224.64 
L 377.8725 224.64 
L 377.8725 207.348531 
L 372.2925 207.348531 
z
" style="fill:#b2df8a;"/>
   </g>
   <g id="patch_59">
    <path clip-path="url(#pcd0c4cbda4)" d="M 110.0325 224.64 
L 115.6125 224.64 
L 115.6125 20.400026 
L 110.0325 20.400026 
z
" style="fill:#33a02c;"/>
   </g>
   <g id="patch_60">
    <path clip-path="url(#pcd0c4cbda4)" d="M 176.9925 224.64 
L 182.5725 224.64 
L 182.5725 63.947598 
L 176.9925 63.947598 
z
" style="fill:#33a02c;"/>
   </g>
   <g id="patch_61">
    <path clip-path="url(#pcd0c4cbda4)" d="M 243.9525 224.64 
L 249.5325 224.64 
L 249.5325 131.662921 
L 243.9525 131.662921 
z
" style="fill:#33a02c;"/>
   </g>
   <g id="patch_62">
    <path clip-path="url(#pcd0c4cbda4)" d="M 310.9125 224.64 
L 316.4925 224.64 
L 316.4925 184.228278 
L 310.9125 184.228278 
z
" style="fill:#33a02c;"/>
   </g>
   <g id="patch_63">
    <path clip-path="url(#pcd0c4cbda4)" d="M 377.8725 224.64 
L 383.4525 224.64 
L 383.4525 207.259948 
L 377.8725 207.259948 
z
" style="fill:#33a02c;"/>
   </g>
   <g id="patch_64">
    <path clip-path="url(#pcd0c4cbda4)" d="M 115.6125 224.64 
L 121.1925 224.64 
L 121.1925 22.559245 
L 115.6125 22.559245 
z
" style="fill:#fb9a99;"/>
   </g>
   <g id="patch_65">
    <path clip-path="url(#pcd0c4cbda4)" d="M 182.5725 224.64 
L 188.1525 224.64 
L 188.1525 64.082688 
L 182.5725 64.082688 
z
" style="fill:#fb9a99;"/>
   </g>
   <g id="patch_66">
    <path clip-path="url(#pcd0c4cbda4)" d="M 249.5325 224.64 
L 255.1125 224.64 
L 255.1125 131.073842 
L 249.5325 131.073842 
z
" style="fill:#fb9a99;"/>
   </g>
   <g id="patch_67">
    <path clip-path="url(#pcd0c4cbda4)" d="M 316.4925 224.64 
L 322.0725 224.64 
L 322.0725 183.670203 
L 316.4925 183.670203 
z
" style="fill:#fb9a99;"/>
   </g>
   <g id="patch_68">
    <path clip-path="url(#pcd0c4cbda4)" d="M 383.4525 224.64 
L 389.0325 224.64 
L 389.0325 206.923331 
L 383.4525 206.923331 
z
" style="fill:#fb9a99;"/>
   </g>
   <g id="patch_69">
    <path clip-path="url(#pcd0c4cbda4)" d="M 121.1925 224.64 
L 126.7725 224.64 
L 126.7725 17.554286 
L 121.1925 17.554286 
z
" style="fill:#e31a1c;"/>
   </g>
   <g id="patch_70">
    <path clip-path="url(#pcd0c4cbda4)" d="M 188.1525 224.64 
L 193.7325 224.64 
L 193.7325 61.646646 
L 188.1525 61.646646 
z
" style="fill:#e31a1c;"/>
   </g>
   <g id="patch_71">
    <path clip-path="url(#pcd0c4cbda4)" d="M 255.1125 224.64 
L 260.6925 224.64 
L 260.6925 132.048259 
L 255.1125 132.048259 
z
" style="fill:#e31a1c;"/>
   </g>
   <g id="patch_72">
    <path clip-path="url(#pcd0c4cbda4)" d="M 322.0725 224.64 
L 327.6525 224.64 
L 327.6525 184.821787 
L 322.0725 184.821787 
z
" style="fill:#e31a1c;"/>
   </g>
   <g id="patch_73">
    <path clip-path="url(#pcd0c4cbda4)" d="M 389.0325 224.64 
L 394.6125 224.64 
L 394.6125 206.923331 
L 389.0325 206.923331 
z
" style="fill:#e31a1c;"/>
   </g>
   <g id="legend_1">
    <g id="patch_74">
     <path d="M 309.25475 112.071875 
L 411.0485 112.071875 
Q 413.0485 112.071875 413.0485 110.071875 
L 413.0485 14.2 
Q 413.0485 12.2 411.0485 12.2 
L 309.25475 12.2 
Q 307.25475 12.2 307.25475 14.2 
L 307.25475 110.071875 
Q 307.25475 112.071875 309.25475 112.071875 
z
" style="fill:#ffffff;opacity:0.8;stroke:#ffffff;stroke-linejoin:miter;stroke-width:0.3;"/>
    </g>
    <g id="patch_75">
     <path d="M 317.25475 29.357813 
L 337.25475 29.357813 
L 337.25475 22.357813 
L 317.25475 22.357813 
z
" style="fill:#a6cee3;"/>
    </g>
    <g id="text_48">
     <text style="fill:#262626;font-family:Arial;font-size:10px;font-style:normal;font-weight:400;text-anchor:start;" transform="rotate(-0, 345.25475, 29.357813)" x="345.25475" y="29.357813">E KDE</text>
    </g>
    <g id="patch_76">
     <path d="M 317.25475 43.503125 
L 337.25475 43.503125 
L 337.25475 36.503125 
L 317.25475 36.503125 
z
" style="fill:#1f78b4;"/>
    </g>
    <g id="text_49">
     <text style="fill:#262626;font-family:Arial;font-size:10px;font-style:normal;font-weight:400;text-anchor:start;" transform="rotate(-0, 345.25475, 43.503125)" x="345.25475" y="43.503125">E Gauss</text>
    </g>
    <g id="patch_77">
     <path d="M 317.25475 57.648438 
L 337.25475 57.648438 
L 337.25475 50.648438 
L 317.25475 50.648438 
z
" style="fill:#b2df8a;"/>
    </g>
    <g id="text_50">
     <text style="fill:#262626;font-family:Arial;font-size:10px;font-style:normal;font-weight:400;text-anchor:start;" transform="rotate(-0, 345.25475, 57.648438)" x="345.25475" y="57.648438">PR KDE</text>
    </g>
    <g id="patch_78">
     <path d="M 317.25475 71.79375 
L 337.25475 71.79375 
L 337.25475 64.79375 
L 317.25475 64.79375 
z
" style="fill:#33a02c;"/>
    </g>
    <g id="text_51">
     <text style="fill:#262626;font-family:Arial;font-size:10px;font-style:normal;font-weight:400;text-anchor:start;" transform="rotate(-0, 345.25475, 71.79375)" x="345.25475" y="71.79375">PR Gauss</text>
    </g>
    <g id="patch_79">
     <path d="M 317.25475 85.939063 
L 337.25475 85.939063 
L 337.25475 78.939063 
L 317.25475 78.939063 
z
" style="fill:#fb9a99;"/>
    </g>
    <g id="text_52">
     <text style="fill:#262626;font-family:Arial;font-size:10px;font-style:normal;font-weight:400;text-anchor:start;" transform="rotate(-0, 345.25475, 85.939063)" x="345.25475" y="85.939063">SNA E mean</text>
    </g>
    <g id="patch_80">
     <path d="M 317.25475 100.084375 
L 337.25475 100.084375 
L 337.25475 93.084375 
L 317.25475 93.084375 
z
" style="fill:#e31a1c;"/>
    </g>
    <g id="text_53">
     <text style="fill:#262626;font-family:Arial;font-size:10px;font-style:normal;font-weight:400;text-anchor:start;" transform="rotate(-0, 345.25475, 100.084375)" x="345.25475" y="100.084375">SNA E max</text>
    </g>
   </g>
  </g>
 </g>
 <defs>
  <clipPath id="pcd0c4cbda4">
   <rect height="217.44" width="334.8" x="76.5525" y="7.2"/>
  </clipPath>
 </defs>
</svg>
