<?xml version="1.0" encoding="utf-8" standalone="no"?>
<!DOCTYPE svg PUBLIC "-//W3C//DTD SVG 1.1//EN"
  "http://www.w3.org/Graphics/SVG/1.1/DTD/svg11.dtd">
<!-- Created with matplotlib (http://matplotlib.org/) -->
<svg height="326pt" version="1.1" viewBox="0 0 429 326" width="429pt" xmlns="http://www.w3.org/2000/svg" xmlns:xlink="http://www.w3.org/1999/xlink">
 <defs>
  <style type="text/css">
*{stroke-linecap:butt;stroke-linejoin:round;stroke-miterlimit:100000;}
  </style>
 </defs>
 <g id="figure_1">
  <g id="patch_1">
   <path d="M 0 326.172656 
L 429.22125 326.172656 
L 429.22125 0 
L 0 0 
z
" style="fill:#ffffff;"/>
  </g>
  <g id="axes_1">
   <g id="patch_2">
    <path d="M 87.22125 234.972656 
L 422.02125 234.972656 
L 422.02125 11.772656 
L 87.22125 11.772656 
z
" style="fill:#ffffff;"/>
   </g>
   <g id="table_1">
    <g id="patch_3">
     <path d="M 87.22125 246.972656 
L 154.18125 246.972656 
L 154.18125 234.972656 
L 87.22125 234.972656 
z
" style="fill:#ffffff;stroke:#000000;stroke-linejoin:miter;stroke-width:0.3;"/>
    </g>
    <g id="text_1">
     <text style="fill:#262626;font-family:Arial;font-size:10.0px;font-style:normal;font-weight:400;text-anchor:middle;" transform="rotate(-0.000000, 120.701250, 243.557813)" x="120.70125" y="243.5578125">7d</text>
    </g>
    <g id="patch_4">
     <path d="M 154.18125 246.972656 
L 221.14125 246.972656 
L 221.14125 234.972656 
L 154.18125 234.972656 
z
" style="fill:#ffffff;stroke:#000000;stroke-linejoin:miter;stroke-width:0.3;"/>
    </g>
    <g id="text_2">
     <text style="fill:#262626;font-family:Arial;font-size:10.0px;font-style:normal;font-weight:400;text-anchor:middle;" transform="rotate(-0.000000, 187.661250, 243.557813)" x="187.66125" y="243.5578125">12d</text>
    </g>
    <g id="patch_5">
     <path d="M 221.14125 246.972656 
L 288.10125 246.972656 
L 288.10125 234.972656 
L 221.14125 234.972656 
z
" style="fill:#ffffff;stroke:#000000;stroke-linejoin:miter;stroke-width:0.3;"/>
    </g>
    <g id="text_3">
     <text style="fill:#262626;font-family:Arial;font-size:10.0px;font-style:normal;font-weight:400;text-anchor:middle;" transform="rotate(-0.000000, 254.621250, 243.557813)" x="254.62125" y="243.5578125">17d</text>
    </g>
    <g id="patch_6">
     <path d="M 288.10125 246.972656 
L 355.06125 246.972656 
L 355.06125 234.972656 
L 288.10125 234.972656 
z
" style="fill:#ffffff;stroke:#000000;stroke-linejoin:miter;stroke-width:0.3;"/>
    </g>
    <g id="text_4">
     <text style="fill:#262626;font-family:Arial;font-size:10.0px;font-style:normal;font-weight:400;text-anchor:middle;" transform="rotate(-0.000000, 321.581250, 243.557813)" x="321.58125" y="243.5578125">22d</text>
    </g>
    <g id="patch_7">
     <path d="M 355.06125 246.972656 
L 422.02125 246.972656 
L 422.02125 234.972656 
L 355.06125 234.972656 
z
" style="fill:#ffffff;stroke:#000000;stroke-linejoin:miter;stroke-width:0.3;"/>
    </g>
    <g id="text_5">
     <text style="fill:#262626;font-family:Arial;font-size:10.0px;font-style:normal;font-weight:400;text-anchor:middle;" transform="rotate(-0.000000, 388.541250, 243.557813)" x="388.54125" y="243.5578125">27d</text>
    </g>
    <g id="patch_8">
     <path d="M 7.2 258.972656 
L 87.22125 258.972656 
L 87.22125 246.972656 
L 7.2 246.972656 
z
" style="fill:#ffffff;stroke:#000000;stroke-linejoin:miter;stroke-width:0.3;"/>
    </g>
    <g id="text_6">
     <text style="fill:#262626;font-family:Arial;font-size:10.0px;font-style:normal;font-weight:400;text-anchor:start;" transform="rotate(-0.000000, 15.202125, 255.557813)" x="15.202125" y="255.5578125">E KDE</text>
    </g>
    <g id="patch_9">
     <path d="M 87.22125 258.972656 
L 154.18125 258.972656 
L 154.18125 246.972656 
L 87.22125 246.972656 
z
" style="fill:#ffffff;stroke:#000000;stroke-linejoin:miter;stroke-width:0.3;"/>
    </g>
    <g id="text_7">
     <text style="fill:#262626;font-family:Arial;font-size:10.0px;font-style:normal;font-weight:400;text-anchor:end;" transform="rotate(-0.000000, 147.485250, 255.557813)" x="147.48525" y="255.5578125">92.9</text>
    </g>
    <g id="patch_10">
     <path d="M 154.18125 258.972656 
L 221.14125 258.972656 
L 221.14125 246.972656 
L 154.18125 246.972656 
z
" style="fill:#ffffff;stroke:#000000;stroke-linejoin:miter;stroke-width:0.3;"/>
    </g>
    <g id="text_8">
     <text style="fill:#262626;font-family:Arial;font-size:10.0px;font-style:normal;font-weight:400;text-anchor:end;" transform="rotate(-0.000000, 214.445250, 255.557813)" x="214.44525" y="255.5578125">73.98</text>
    </g>
    <g id="patch_11">
     <path d="M 221.14125 258.972656 
L 288.10125 258.972656 
L 288.10125 246.972656 
L 221.14125 246.972656 
z
" style="fill:#ffffff;stroke:#000000;stroke-linejoin:miter;stroke-width:0.3;"/>
    </g>
    <g id="text_9">
     <text style="fill:#262626;font-family:Arial;font-size:10.0px;font-style:normal;font-weight:400;text-anchor:end;" transform="rotate(-0.000000, 281.405250, 255.557813)" x="281.40525" y="255.5578125">42.68</text>
    </g>
    <g id="patch_12">
     <path d="M 288.10125 258.972656 
L 355.06125 258.972656 
L 355.06125 246.972656 
L 288.10125 246.972656 
z
" style="fill:#ffffff;stroke:#000000;stroke-linejoin:miter;stroke-width:0.3;"/>
    </g>
    <g id="text_10">
     <text style="fill:#262626;font-family:Arial;font-size:10.0px;font-style:normal;font-weight:400;text-anchor:end;" transform="rotate(-0.000000, 348.365250, 255.557813)" x="348.36525" y="255.5578125">17.74</text>
    </g>
    <g id="patch_13">
     <path d="M 355.06125 258.972656 
L 422.02125 258.972656 
L 422.02125 246.972656 
L 355.06125 246.972656 
z
" style="fill:#ffffff;stroke:#000000;stroke-linejoin:miter;stroke-width:0.3;"/>
    </g>
    <g id="text_11">
     <text style="fill:#262626;font-family:Arial;font-size:10.0px;font-style:normal;font-weight:400;text-anchor:end;" transform="rotate(-0.000000, 415.325250, 255.557813)" x="415.32525" y="255.5578125">8.26</text>
    </g>
    <g id="patch_14">
     <path d="M 7.2 270.972656 
L 87.22125 270.972656 
L 87.22125 258.972656 
L 7.2 258.972656 
z
" style="fill:#ffffff;stroke:#000000;stroke-linejoin:miter;stroke-width:0.3;"/>
    </g>
    <g id="text_12">
     <text style="fill:#262626;font-family:Arial;font-size:10.0px;font-style:normal;font-weight:400;text-anchor:start;" transform="rotate(-0.000000, 15.202125, 267.557813)" x="15.202125" y="267.5578125">E Gauss</text>
    </g>
    <g id="patch_15">
     <path d="M 87.22125 270.972656 
L 154.18125 270.972656 
L 154.18125 258.972656 
L 87.22125 258.972656 
z
" style="fill:#ffffff;stroke:#000000;stroke-linejoin:miter;stroke-width:0.3;"/>
    </g>
    <g id="text_13">
     <text style="fill:#262626;font-family:Arial;font-size:10.0px;font-style:normal;font-weight:400;text-anchor:end;" transform="rotate(-0.000000, 147.485250, 267.557813)" x="147.48525" y="267.5578125">92.43</text>
    </g>
    <g id="patch_16">
     <path d="M 154.18125 270.972656 
L 221.14125 270.972656 
L 221.14125 258.972656 
L 154.18125 258.972656 
z
" style="fill:#ffffff;stroke:#000000;stroke-linejoin:miter;stroke-width:0.3;"/>
    </g>
    <g id="text_14">
     <text style="fill:#262626;font-family:Arial;font-size:10.0px;font-style:normal;font-weight:400;text-anchor:end;" transform="rotate(-0.000000, 214.445250, 267.557813)" x="214.44525" y="267.5578125">72.7</text>
    </g>
    <g id="patch_17">
     <path d="M 221.14125 270.972656 
L 288.10125 270.972656 
L 288.10125 258.972656 
L 221.14125 258.972656 
z
" style="fill:#ffffff;stroke:#000000;stroke-linejoin:miter;stroke-width:0.3;"/>
    </g>
    <g id="text_15">
     <text style="fill:#262626;font-family:Arial;font-size:10.0px;font-style:normal;font-weight:400;text-anchor:end;" transform="rotate(-0.000000, 281.405250, 267.557813)" x="281.40525" y="267.5578125">42.26</text>
    </g>
    <g id="patch_18">
     <path d="M 288.10125 270.972656 
L 355.06125 270.972656 
L 355.06125 258.972656 
L 288.10125 258.972656 
z
" style="fill:#ffffff;stroke:#000000;stroke-linejoin:miter;stroke-width:0.3;"/>
    </g>
    <g id="text_16">
     <text style="fill:#262626;font-family:Arial;font-size:10.0px;font-style:normal;font-weight:400;text-anchor:end;" transform="rotate(-0.000000, 348.365250, 267.557813)" x="348.36525" y="267.5578125">18.11</text>
    </g>
    <g id="patch_19">
     <path d="M 355.06125 270.972656 
L 422.02125 270.972656 
L 422.02125 258.972656 
L 355.06125 258.972656 
z
" style="fill:#ffffff;stroke:#000000;stroke-linejoin:miter;stroke-width:0.3;"/>
    </g>
    <g id="text_17">
     <text style="fill:#262626;font-family:Arial;font-size:10.0px;font-style:normal;font-weight:400;text-anchor:end;" transform="rotate(-0.000000, 415.325250, 267.557813)" x="415.32525" y="267.5578125">8.4</text>
    </g>
    <g id="patch_20">
     <path d="M 7.2 282.972656 
L 87.22125 282.972656 
L 87.22125 270.972656 
L 7.2 270.972656 
z
" style="fill:#ffffff;stroke:#000000;stroke-linejoin:miter;stroke-width:0.3;"/>
    </g>
    <g id="text_18">
     <text style="fill:#262626;font-family:Arial;font-size:10.0px;font-style:normal;font-weight:400;text-anchor:start;" transform="rotate(-0.000000, 15.202125, 279.557813)" x="15.202125" y="279.5578125">PR KDE</text>
    </g>
    <g id="patch_21">
     <path d="M 87.22125 282.972656 
L 154.18125 282.972656 
L 154.18125 270.972656 
L 87.22125 270.972656 
z
" style="fill:#ffffff;stroke:#000000;stroke-linejoin:miter;stroke-width:0.3;"/>
    </g>
    <g id="text_19">
     <text style="fill:#262626;font-family:Arial;font-size:10.0px;font-style:normal;font-weight:400;text-anchor:end;" transform="rotate(-0.000000, 147.485250, 279.557813)" x="147.48525" y="279.5578125">92.87</text>
    </g>
    <g id="patch_22">
     <path d="M 154.18125 282.972656 
L 221.14125 282.972656 
L 221.14125 270.972656 
L 154.18125 270.972656 
z
" style="fill:#ffffff;stroke:#000000;stroke-linejoin:miter;stroke-width:0.3;"/>
    </g>
    <g id="text_20">
     <text style="fill:#262626;font-family:Arial;font-size:10.0px;font-style:normal;font-weight:400;text-anchor:end;" transform="rotate(-0.000000, 214.445250, 279.557813)" x="214.44525" y="279.5578125">72.77</text>
    </g>
    <g id="patch_23">
     <path d="M 221.14125 282.972656 
L 288.10125 282.972656 
L 288.10125 270.972656 
L 221.14125 270.972656 
z
" style="fill:#ffffff;stroke:#000000;stroke-linejoin:miter;stroke-width:0.3;"/>
    </g>
    <g id="text_21">
     <text style="fill:#262626;font-family:Arial;font-size:10.0px;font-style:normal;font-weight:400;text-anchor:end;" transform="rotate(-0.000000, 281.405250, 279.557813)" x="281.40525" y="279.5578125">43.14</text>
    </g>
    <g id="patch_24">
     <path d="M 288.10125 282.972656 
L 355.06125 282.972656 
L 355.06125 270.972656 
L 288.10125 270.972656 
z
" style="fill:#ffffff;stroke:#000000;stroke-linejoin:miter;stroke-width:0.3;"/>
    </g>
    <g id="text_22">
     <text style="fill:#262626;font-family:Arial;font-size:10.0px;font-style:normal;font-weight:400;text-anchor:end;" transform="rotate(-0.000000, 348.365250, 279.557813)" x="348.36525" y="279.5578125">17.62</text>
    </g>
    <g id="patch_25">
     <path d="M 355.06125 282.972656 
L 422.02125 282.972656 
L 422.02125 270.972656 
L 355.06125 270.972656 
z
" style="fill:#ffffff;stroke:#000000;stroke-linejoin:miter;stroke-width:0.3;"/>
    </g>
    <g id="text_23">
     <text style="fill:#262626;font-family:Arial;font-size:10.0px;font-style:normal;font-weight:400;text-anchor:end;" transform="rotate(-0.000000, 415.325250, 279.557813)" x="415.32525" y="279.5578125">7.81</text>
    </g>
    <g id="patch_26">
     <path d="M 7.2 294.972656 
L 87.22125 294.972656 
L 87.22125 282.972656 
L 7.2 282.972656 
z
" style="fill:#ffffff;stroke:#000000;stroke-linejoin:miter;stroke-width:0.3;"/>
    </g>
    <g id="text_24">
     <text style="fill:#262626;font-family:Arial;font-size:10.0px;font-style:normal;font-weight:400;text-anchor:start;" transform="rotate(-0.000000, 15.202125, 291.557813)" x="15.202125" y="291.5578125">PR Gauss</text>
    </g>
    <g id="patch_27">
     <path d="M 87.22125 294.972656 
L 154.18125 294.972656 
L 154.18125 282.972656 
L 87.22125 282.972656 
z
" style="fill:#ffffff;stroke:#000000;stroke-linejoin:miter;stroke-width:0.3;"/>
    </g>
    <g id="text_25">
     <text style="fill:#262626;font-family:Arial;font-size:10.0px;font-style:normal;font-weight:400;text-anchor:end;" transform="rotate(-0.000000, 147.485250, 291.557813)" x="147.48525" y="291.5578125">92.22</text>
    </g>
    <g id="patch_28">
     <path d="M 154.18125 294.972656 
L 221.14125 294.972656 
L 221.14125 282.972656 
L 154.18125 282.972656 
z
" style="fill:#ffffff;stroke:#000000;stroke-linejoin:miter;stroke-width:0.3;"/>
    </g>
    <g id="text_26">
     <text style="fill:#262626;font-family:Arial;font-size:10.0px;font-style:normal;font-weight:400;text-anchor:end;" transform="rotate(-0.000000, 214.445250, 291.557813)" x="214.44525" y="291.5578125">72.56</text>
    </g>
    <g id="patch_29">
     <path d="M 221.14125 294.972656 
L 288.10125 294.972656 
L 288.10125 282.972656 
L 221.14125 282.972656 
z
" style="fill:#ffffff;stroke:#000000;stroke-linejoin:miter;stroke-width:0.3;"/>
    </g>
    <g id="text_27">
     <text style="fill:#262626;font-family:Arial;font-size:10.0px;font-style:normal;font-weight:400;text-anchor:end;" transform="rotate(-0.000000, 281.405250, 291.557813)" x="281.40525" y="291.5578125">41.98</text>
    </g>
    <g id="patch_30">
     <path d="M 288.10125 294.972656 
L 355.06125 294.972656 
L 355.06125 282.972656 
L 288.10125 282.972656 
z
" style="fill:#ffffff;stroke:#000000;stroke-linejoin:miter;stroke-width:0.3;"/>
    </g>
    <g id="text_28">
     <text style="fill:#262626;font-family:Arial;font-size:10.0px;font-style:normal;font-weight:400;text-anchor:end;" transform="rotate(-0.000000, 348.365250, 291.557813)" x="348.36525" y="291.5578125">18.25</text>
    </g>
    <g id="patch_31">
     <path d="M 355.06125 294.972656 
L 422.02125 294.972656 
L 422.02125 282.972656 
L 355.06125 282.972656 
z
" style="fill:#ffffff;stroke:#000000;stroke-linejoin:miter;stroke-width:0.3;"/>
    </g>
    <g id="text_29">
     <text style="fill:#262626;font-family:Arial;font-size:10.0px;font-style:normal;font-weight:400;text-anchor:end;" transform="rotate(-0.000000, 415.325250, 291.557813)" x="415.32525" y="291.5578125">7.85</text>
    </g>
    <g id="patch_32">
     <path d="M 7.2 306.972656 
L 87.22125 306.972656 
L 87.22125 294.972656 
L 7.2 294.972656 
z
" style="fill:#ffffff;stroke:#000000;stroke-linejoin:miter;stroke-width:0.3;"/>
    </g>
    <g id="text_30">
     <text style="fill:#262626;font-family:Arial;font-size:10.0px;font-style:normal;font-weight:400;text-anchor:start;" transform="rotate(-0.000000, 15.202125, 303.618750)" x="15.202125" y="303.61875">SNA Epr mean</text>
    </g>
    <g id="patch_33">
     <path d="M 87.22125 306.972656 
L 154.18125 306.972656 
L 154.18125 294.972656 
L 87.22125 294.972656 
z
" style="fill:#ffffff;stroke:#000000;stroke-linejoin:miter;stroke-width:0.3;"/>
    </g>
    <g id="text_31">
     <text style="fill:#262626;font-family:Arial;font-size:10.0px;font-style:normal;font-weight:400;text-anchor:end;" transform="rotate(-0.000000, 147.485250, 303.557813)" x="147.48525" y="303.5578125">91.2</text>
    </g>
    <g id="patch_34">
     <path d="M 154.18125 306.972656 
L 221.14125 306.972656 
L 221.14125 294.972656 
L 154.18125 294.972656 
z
" style="fill:#ffffff;stroke:#000000;stroke-linejoin:miter;stroke-width:0.3;"/>
    </g>
    <g id="text_32">
     <text style="fill:#262626;font-family:Arial;font-size:10.0px;font-style:normal;font-weight:400;text-anchor:end;" transform="rotate(-0.000000, 214.445250, 303.557813)" x="214.44525" y="303.5578125">71.8</text>
    </g>
    <g id="patch_35">
     <path d="M 221.14125 306.972656 
L 288.10125 306.972656 
L 288.10125 294.972656 
L 221.14125 294.972656 
z
" style="fill:#ffffff;stroke:#000000;stroke-linejoin:miter;stroke-width:0.3;"/>
    </g>
    <g id="text_33">
     <text style="fill:#262626;font-family:Arial;font-size:10.0px;font-style:normal;font-weight:400;text-anchor:end;" transform="rotate(-0.000000, 281.405250, 303.557813)" x="281.40525" y="303.5578125">42.4</text>
    </g>
    <g id="patch_36">
     <path d="M 288.10125 306.972656 
L 355.06125 306.972656 
L 355.06125 294.972656 
L 288.10125 294.972656 
z
" style="fill:#ffffff;stroke:#000000;stroke-linejoin:miter;stroke-width:0.3;"/>
    </g>
    <g id="text_34">
     <text style="fill:#262626;font-family:Arial;font-size:10.0px;font-style:normal;font-weight:400;text-anchor:end;" transform="rotate(-0.000000, 348.365250, 303.557813)" x="348.36525" y="303.5578125">17.0</text>
    </g>
    <g id="patch_37">
     <path d="M 355.06125 306.972656 
L 422.02125 306.972656 
L 422.02125 294.972656 
L 355.06125 294.972656 
z
" style="fill:#ffffff;stroke:#000000;stroke-linejoin:miter;stroke-width:0.3;"/>
    </g>
    <g id="text_35">
     <text style="fill:#262626;font-family:Arial;font-size:10.0px;font-style:normal;font-weight:400;text-anchor:end;" transform="rotate(-0.000000, 415.325250, 303.557813)" x="415.32525" y="303.5578125">6.5</text>
    </g>
    <g id="patch_38">
     <path d="M 7.2 318.972656 
L 87.22125 318.972656 
L 87.22125 306.972656 
L 7.2 306.972656 
z
" style="fill:#ffffff;stroke:#000000;stroke-linejoin:miter;stroke-width:0.3;"/>
    </g>
    <g id="text_36">
     <text style="fill:#262626;font-family:Arial;font-size:10.0px;font-style:normal;font-weight:400;text-anchor:start;" transform="rotate(-0.000000, 15.202125, 315.618750)" x="15.202125" y="315.61875">SNA Epr max</text>
    </g>
    <g id="patch_39">
     <path d="M 87.22125 318.972656 
L 154.18125 318.972656 
L 154.18125 306.972656 
L 87.22125 306.972656 
z
" style="fill:#ffffff;stroke:#000000;stroke-linejoin:miter;stroke-width:0.3;"/>
    </g>
    <g id="text_37">
     <text style="fill:#262626;font-family:Arial;font-size:10.0px;font-style:normal;font-weight:400;text-anchor:end;" transform="rotate(-0.000000, 147.485250, 315.557813)" x="147.48525" y="315.5578125">93.2</text>
    </g>
    <g id="patch_40">
     <path d="M 154.18125 318.972656 
L 221.14125 318.972656 
L 221.14125 306.972656 
L 154.18125 306.972656 
z
" style="fill:#ffffff;stroke:#000000;stroke-linejoin:miter;stroke-width:0.3;"/>
    </g>
    <g id="text_38">
     <text style="fill:#262626;font-family:Arial;font-size:10.0px;font-style:normal;font-weight:400;text-anchor:end;" transform="rotate(-0.000000, 214.445250, 315.557813)" x="214.44525" y="315.5578125">73.0</text>
    </g>
    <g id="patch_41">
     <path d="M 221.14125 318.972656 
L 288.10125 318.972656 
L 288.10125 306.972656 
L 221.14125 306.972656 
z
" style="fill:#ffffff;stroke:#000000;stroke-linejoin:miter;stroke-width:0.3;"/>
    </g>
    <g id="text_39">
     <text style="fill:#262626;font-family:Arial;font-size:10.0px;font-style:normal;font-weight:400;text-anchor:end;" transform="rotate(-0.000000, 281.405250, 315.557813)" x="281.40525" y="315.5578125">40.9</text>
    </g>
    <g id="patch_42">
     <path d="M 288.10125 318.972656 
L 355.06125 318.972656 
L 355.06125 306.972656 
L 288.10125 306.972656 
z
" style="fill:#ffffff;stroke:#000000;stroke-linejoin:miter;stroke-width:0.3;"/>
    </g>
    <g id="text_40">
     <text style="fill:#262626;font-family:Arial;font-size:10.0px;font-style:normal;font-weight:400;text-anchor:end;" transform="rotate(-0.000000, 348.365250, 315.557813)" x="348.36525" y="315.5578125">16.2</text>
    </g>
    <g id="patch_43">
     <path d="M 355.06125 318.972656 
L 422.02125 318.972656 
L 422.02125 306.972656 
L 355.06125 306.972656 
z
" style="fill:#ffffff;stroke:#000000;stroke-linejoin:miter;stroke-width:0.3;"/>
    </g>
    <g id="text_41">
     <text style="fill:#262626;font-family:Arial;font-size:10.0px;font-style:normal;font-weight:400;text-anchor:end;" transform="rotate(-0.000000, 415.325250, 315.557813)" x="415.32525" y="315.5578125">6.5</text>
    </g>
   </g>
   <g id="matplotlib.axis_1">
    <g id="ytick_1">
     <g id="line2d_1">
      <path clip-path="url(#p08b5a07164)" d="M 87.22125 234.972656 
L 422.02125 234.972656 
" style="fill:none;stroke:#cccccc;stroke-linecap:round;"/>
     </g>
     <g id="line2d_2"/>
     <g id="line2d_3"/>
     <g id="text_42">
      <text style="fill:#262626;font-family:Arial;font-size:10.0px;font-style:normal;font-weight:400;text-anchor:end;" transform="rotate(-0.000000, 80.221250, 237.557813)" x="80.22125" y="237.5578125">0</text>
     </g>
    </g>
    <g id="ytick_2">
     <g id="line2d_4">
      <path clip-path="url(#p08b5a07164)" d="M 87.22125 190.332656 
L 422.02125 190.332656 
" style="fill:none;stroke:#cccccc;stroke-linecap:round;"/>
     </g>
     <g id="line2d_5"/>
     <g id="line2d_6"/>
     <g id="text_43">
      <text style="fill:#262626;font-family:Arial;font-size:10.0px;font-style:normal;font-weight:400;text-anchor:end;" transform="rotate(-0.000000, 80.221250, 192.917813)" x="80.22125" y="192.9178125">20</text>
     </g>
    </g>
    <g id="ytick_3">
     <g id="line2d_7">
      <path clip-path="url(#p08b5a07164)" d="M 87.22125 145.692656 
L 422.02125 145.692656 
" style="fill:none;stroke:#cccccc;stroke-linecap:round;"/>
     </g>
     <g id="line2d_8"/>
     <g id="line2d_9"/>
     <g id="text_44">
      <text style="fill:#262626;font-family:Arial;font-size:10.0px;font-style:normal;font-weight:400;text-anchor:end;" transform="rotate(-0.000000, 80.221250, 148.277813)" x="80.22125" y="148.2778125">40</text>
     </g>
    </g>
    <g id="ytick_4">
     <g id="line2d_10">
      <path clip-path="url(#p08b5a07164)" d="M 87.22125 101.052656 
L 422.02125 101.052656 
" style="fill:none;stroke:#cccccc;stroke-linecap:round;"/>
     </g>
     <g id="line2d_11"/>
     <g id="line2d_12"/>
     <g id="text_45">
      <text style="fill:#262626;font-family:Arial;font-size:10.0px;font-style:normal;font-weight:400;text-anchor:end;" transform="rotate(-0.000000, 80.221250, 103.637813)" x="80.22125" y="103.6378125">60</text>
     </g>
    </g>
    <g id="ytick_5">
     <g id="line2d_13">
      <path clip-path="url(#p08b5a07164)" d="M 87.22125 56.412656 
L 422.02125 56.412656 
" style="fill:none;stroke:#cccccc;stroke-linecap:round;"/>
     </g>
     <g id="line2d_14"/>
     <g id="line2d_15"/>
     <g id="text_46">
      <text style="fill:#262626;font-family:Arial;font-size:10.0px;font-style:normal;font-weight:400;text-anchor:end;" transform="rotate(-0.000000, 80.221250, 58.997813)" x="80.22125" y="58.9978125">80</text>
     </g>
    </g>
    <g id="ytick_6">
     <g id="line2d_16">
      <path clip-path="url(#p08b5a07164)" d="M 87.22125 11.772656 
L 422.02125 11.772656 
" style="fill:none;stroke:#cccccc;stroke-linecap:round;"/>
     </g>
     <g id="line2d_17"/>
     <g id="line2d_18"/>
     <g id="text_47">
      <text style="fill:#262626;font-family:Arial;font-size:10.0px;font-style:normal;font-weight:400;text-anchor:end;" transform="rotate(-0.000000, 80.221250, 14.357813)" x="80.22125" y="14.3578125">100</text>
     </g>
    </g>
    <g id="text_48">
     <text style="fill:#262626;font-family:Arial;font-size:11.0px;font-style:normal;font-weight:400;text-anchor:middle;" transform="rotate(-90.000000, 56.223281, 123.372656)" x="56.22328125" y="123.37265625">FRET (%)</text>
    </g>
   </g>
   <g id="patch_44">
    <path clip-path="url(#p08b5a07164)" d="M 103.96125 234.972656 
L 109.54125 234.972656 
L 109.54125 27.619856 
L 103.96125 27.619856 
z
" style="fill:#a6cee3;stroke:#000000;stroke-linejoin:miter;stroke-width:0.3;"/>
   </g>
   <g id="patch_45">
    <path clip-path="url(#p08b5a07164)" d="M 170.92125 234.972656 
L 176.50125 234.972656 
L 176.50125 69.849296 
L 170.92125 69.849296 
z
" style="fill:#a6cee3;stroke:#000000;stroke-linejoin:miter;stroke-width:0.3;"/>
   </g>
   <g id="patch_46">
    <path clip-path="url(#p08b5a07164)" d="M 237.88125 234.972656 
L 243.46125 234.972656 
L 243.46125 139.710896 
L 237.88125 139.710896 
z
" style="fill:#a6cee3;stroke:#000000;stroke-linejoin:miter;stroke-width:0.3;"/>
   </g>
   <g id="patch_47">
    <path clip-path="url(#p08b5a07164)" d="M 304.84125 234.972656 
L 310.42125 234.972656 
L 310.42125 195.376976 
L 304.84125 195.376976 
z
" style="fill:#a6cee3;stroke:#000000;stroke-linejoin:miter;stroke-width:0.3;"/>
   </g>
   <g id="patch_48">
    <path clip-path="url(#p08b5a07164)" d="M 371.80125 234.972656 
L 377.38125 234.972656 
L 377.38125 216.536336 
L 371.80125 216.536336 
z
" style="fill:#a6cee3;stroke:#000000;stroke-linejoin:miter;stroke-width:0.3;"/>
   </g>
   <g id="patch_49">
    <path clip-path="url(#p08b5a07164)" d="M 109.54125 234.972656 
L 115.12125 234.972656 
L 115.12125 28.666664 
L 109.54125 28.666664 
z
" style="fill:#2079b4;stroke:#000000;stroke-linejoin:miter;stroke-width:0.3;"/>
   </g>
   <g id="patch_50">
    <path clip-path="url(#p08b5a07164)" d="M 176.50125 234.972656 
L 182.08125 234.972656 
L 182.08125 72.697328 
L 176.50125 72.697328 
z
" style="fill:#2079b4;stroke:#000000;stroke-linejoin:miter;stroke-width:0.3;"/>
   </g>
   <g id="patch_51">
    <path clip-path="url(#p08b5a07164)" d="M 243.46125 234.972656 
L 249.04125 234.972656 
L 249.04125 140.643872 
L 243.46125 140.643872 
z
" style="fill:#2079b4;stroke:#000000;stroke-linejoin:miter;stroke-width:0.3;"/>
   </g>
   <g id="patch_52">
    <path clip-path="url(#p08b5a07164)" d="M 310.42125 234.972656 
L 316.00125 234.972656 
L 316.00125 194.557832 
L 310.42125 194.557832 
z
" style="fill:#2079b4;stroke:#000000;stroke-linejoin:miter;stroke-width:0.3;"/>
   </g>
   <g id="patch_53">
    <path clip-path="url(#p08b5a07164)" d="M 377.38125 234.972656 
L 382.96125 234.972656 
L 382.96125 216.230552 
L 377.38125 216.230552 
z
" style="fill:#2079b4;stroke:#000000;stroke-linejoin:miter;stroke-width:0.3;"/>
   </g>
   <g id="patch_54">
    <path clip-path="url(#p08b5a07164)" d="M 115.12125 234.972656 
L 120.70125 234.972656 
L 120.70125 27.68012 
L 115.12125 27.68012 
z
" style="fill:#b0dd8b;stroke:#000000;stroke-linejoin:miter;stroke-width:0.3;"/>
   </g>
   <g id="patch_55">
    <path clip-path="url(#p08b5a07164)" d="M 182.08125 234.972656 
L 187.66125 234.972656 
L 187.66125 72.54332 
L 182.08125 72.54332 
z
" style="fill:#b0dd8b;stroke:#000000;stroke-linejoin:miter;stroke-width:0.3;"/>
   </g>
   <g id="patch_56">
    <path clip-path="url(#p08b5a07164)" d="M 249.04125 234.972656 
L 254.62125 234.972656 
L 254.62125 138.684176 
L 249.04125 138.684176 
z
" style="fill:#b0dd8b;stroke:#000000;stroke-linejoin:miter;stroke-width:0.3;"/>
   </g>
   <g id="patch_57">
    <path clip-path="url(#p08b5a07164)" d="M 316.00125 234.972656 
L 321.58125 234.972656 
L 321.58125 195.640352 
L 316.00125 195.640352 
z
" style="fill:#b0dd8b;stroke:#000000;stroke-linejoin:miter;stroke-width:0.3;"/>
   </g>
   <g id="patch_58">
    <path clip-path="url(#p08b5a07164)" d="M 382.96125 234.972656 
L 388.54125 234.972656 
L 388.54125 217.5452 
L 382.96125 217.5452 
z
" style="fill:#b0dd8b;stroke:#000000;stroke-linejoin:miter;stroke-width:0.3;"/>
   </g>
   <g id="patch_59">
    <path clip-path="url(#p08b5a07164)" d="M 120.70125 234.972656 
L 126.28125 234.972656 
L 126.28125 29.126456 
L 120.70125 29.126456 
z
" style="fill:#36a12e;stroke:#000000;stroke-linejoin:miter;stroke-width:0.3;"/>
   </g>
   <g id="patch_60">
    <path clip-path="url(#p08b5a07164)" d="M 187.66125 234.972656 
L 193.24125 234.972656 
L 193.24125 73.016504 
L 187.66125 73.016504 
z
" style="fill:#36a12e;stroke:#000000;stroke-linejoin:miter;stroke-width:0.3;"/>
   </g>
   <g id="patch_61">
    <path clip-path="url(#p08b5a07164)" d="M 254.62125 234.972656 
L 260.20125 234.972656 
L 260.20125 141.264368 
L 254.62125 141.264368 
z
" style="fill:#36a12e;stroke:#000000;stroke-linejoin:miter;stroke-width:0.3;"/>
   </g>
   <g id="patch_62">
    <path clip-path="url(#p08b5a07164)" d="M 321.58125 234.972656 
L 327.16125 234.972656 
L 327.16125 194.24312 
L 321.58125 194.24312 
z
" style="fill:#36a12e;stroke:#000000;stroke-linejoin:miter;stroke-width:0.3;"/>
   </g>
   <g id="patch_63">
    <path clip-path="url(#p08b5a07164)" d="M 388.54125 234.972656 
L 394.12125 234.972656 
L 394.12125 217.45592 
L 388.54125 217.45592 
z
" style="fill:#36a12e;stroke:#000000;stroke-linejoin:miter;stroke-width:0.3;"/>
   </g>
   <g id="patch_64">
    <path clip-path="url(#p08b5a07164)" d="M 126.28125 234.972656 
L 131.86125 234.972656 
L 131.86125 31.414256 
L 126.28125 31.414256 
z
" style="fill:#fb9898;stroke:#000000;stroke-linejoin:miter;stroke-width:0.3;"/>
   </g>
   <g id="patch_65">
    <path clip-path="url(#p08b5a07164)" d="M 193.24125 234.972656 
L 198.82125 234.972656 
L 198.82125 74.715056 
L 193.24125 74.715056 
z
" style="fill:#fb9898;stroke:#000000;stroke-linejoin:miter;stroke-width:0.3;"/>
   </g>
   <g id="patch_66">
    <path clip-path="url(#p08b5a07164)" d="M 260.20125 234.972656 
L 265.78125 234.972656 
L 265.78125 140.335856 
L 260.20125 140.335856 
z
" style="fill:#fb9898;stroke:#000000;stroke-linejoin:miter;stroke-width:0.3;"/>
   </g>
   <g id="patch_67">
    <path clip-path="url(#p08b5a07164)" d="M 327.16125 234.972656 
L 332.74125 234.972656 
L 332.74125 197.028656 
L 327.16125 197.028656 
z
" style="fill:#fb9898;stroke:#000000;stroke-linejoin:miter;stroke-width:0.3;"/>
   </g>
   <g id="patch_68">
    <path clip-path="url(#p08b5a07164)" d="M 394.12125 234.972656 
L 399.70125 234.972656 
L 399.70125 220.464656 
L 394.12125 220.464656 
z
" style="fill:#fb9898;stroke:#000000;stroke-linejoin:miter;stroke-width:0.3;"/>
   </g>
   <g id="patch_69">
    <path clip-path="url(#p08b5a07164)" d="M 131.86125 234.972656 
L 137.44125 234.972656 
L 137.44125 26.950256 
L 131.86125 26.950256 
z
" style="fill:#e31b1c;stroke:#000000;stroke-linejoin:miter;stroke-width:0.3;"/>
   </g>
   <g id="patch_70">
    <path clip-path="url(#p08b5a07164)" d="M 198.82125 234.972656 
L 204.40125 234.972656 
L 204.40125 72.036656 
L 198.82125 72.036656 
z
" style="fill:#e31b1c;stroke:#000000;stroke-linejoin:miter;stroke-width:0.3;"/>
   </g>
   <g id="patch_71">
    <path clip-path="url(#p08b5a07164)" d="M 265.78125 234.972656 
L 271.36125 234.972656 
L 271.36125 143.683856 
L 265.78125 143.683856 
z
" style="fill:#e31b1c;stroke:#000000;stroke-linejoin:miter;stroke-width:0.3;"/>
   </g>
   <g id="patch_72">
    <path clip-path="url(#p08b5a07164)" d="M 332.74125 234.972656 
L 338.32125 234.972656 
L 338.32125 198.814256 
L 332.74125 198.814256 
z
" style="fill:#e31b1c;stroke:#000000;stroke-linejoin:miter;stroke-width:0.3;"/>
   </g>
   <g id="patch_73">
    <path clip-path="url(#p08b5a07164)" d="M 399.70125 234.972656 
L 405.28125 234.972656 
L 405.28125 220.464656 
L 399.70125 220.464656 
z
" style="fill:#e31b1c;stroke:#000000;stroke-linejoin:miter;stroke-width:0.3;"/>
   </g>
   <g id="patch_74">
    <path d="M 87.22125 11.772656 
L 422.02125 11.772656 
" style="fill:none;stroke:#cccccc;stroke-linecap:square;stroke-linejoin:miter;"/>
   </g>
   <g id="patch_75">
    <path d="M 87.22125 234.972656 
L 87.22125 11.772656 
" style="fill:none;stroke:#cccccc;stroke-linecap:square;stroke-linejoin:miter;"/>
   </g>
   <g id="patch_76">
    <path d="M 87.22125 234.972656 
L 422.02125 234.972656 
" style="fill:none;stroke:#cccccc;stroke-linecap:square;stroke-linejoin:miter;"/>
   </g>
   <g id="patch_77">
    <path d="M 422.02125 234.972656 
L 422.02125 11.772656 
" style="fill:none;stroke:#cccccc;stroke-linecap:square;stroke-linejoin:miter;"/>
   </g>
   <g id="legend_1">
    <g id="patch_78">
     <path d="M 314.336875 104.888281 
L 417.02125 104.888281 
L 417.02125 16.772656 
L 314.336875 16.772656 
z
" style="fill:#ffffff;stroke:#cccccc;stroke-linejoin:miter;stroke-width:0.3;"/>
    </g>
    <g id="patch_79">
     <path d="M 318.336875 27.930469 
L 338.336875 27.930469 
L 338.336875 20.930469 
L 318.336875 20.930469 
z
" style="fill:#a6cee3;stroke:#000000;stroke-linejoin:miter;stroke-width:0.3;"/>
    </g>
    <g id="text_49">
     <text style="fill:#262626;font-family:Arial;font-size:10.0px;font-style:normal;font-weight:400;text-anchor:start;" transform="rotate(-0.000000, 346.336875, 27.930469)" x="346.336875" y="27.93046875">E KDE</text>
    </g>
    <g id="patch_80">
     <path d="M 318.336875 42.075781 
L 338.336875 42.075781 
L 338.336875 35.075781 
L 318.336875 35.075781 
z
" style="fill:#2079b4;stroke:#000000;stroke-linejoin:miter;stroke-width:0.3;"/>
    </g>
    <g id="text_50">
     <text style="fill:#262626;font-family:Arial;font-size:10.0px;font-style:normal;font-weight:400;text-anchor:start;" transform="rotate(-0.000000, 346.336875, 42.075781)" x="346.336875" y="42.07578125">E Gauss</text>
    </g>
    <g id="patch_81">
     <path d="M 318.336875 56.221094 
L 338.336875 56.221094 
L 338.336875 49.221094 
L 318.336875 49.221094 
z
" style="fill:#b0dd8b;stroke:#000000;stroke-linejoin:miter;stroke-width:0.3;"/>
    </g>
    <g id="text_51">
     <text style="fill:#262626;font-family:Arial;font-size:10.0px;font-style:normal;font-weight:400;text-anchor:start;" transform="rotate(-0.000000, 346.336875, 56.221094)" x="346.336875" y="56.22109375">PR KDE</text>
    </g>
    <g id="patch_82">
     <path d="M 318.336875 70.366406 
L 338.336875 70.366406 
L 338.336875 63.366406 
L 318.336875 63.366406 
z
" style="fill:#36a12e;stroke:#000000;stroke-linejoin:miter;stroke-width:0.3;"/>
    </g>
    <g id="text_52">
     <text style="fill:#262626;font-family:Arial;font-size:10.0px;font-style:normal;font-weight:400;text-anchor:start;" transform="rotate(-0.000000, 346.336875, 70.366406)" x="346.336875" y="70.36640625">PR Gauss</text>
    </g>
    <g id="patch_83">
     <path d="M 318.336875 84.633594 
L 338.336875 84.633594 
L 338.336875 77.633594 
L 318.336875 77.633594 
z
" style="fill:#fb9898;stroke:#000000;stroke-linejoin:miter;stroke-width:0.3;"/>
    </g>
    <g id="text_53">
     <text style="fill:#262626;font-family:Arial;font-size:10.0px;font-style:normal;font-weight:400;text-anchor:start;" transform="rotate(-0.000000, 346.336875, 84.633594)" x="346.336875" y="84.63359375">SNA Epr mean</text>
    </g>
    <g id="patch_84">
     <path d="M 318.336875 98.900781 
L 338.336875 98.900781 
L 338.336875 91.900781 
L 318.336875 91.900781 
z
" style="fill:#e31b1c;stroke:#000000;stroke-linejoin:miter;stroke-width:0.3;"/>
    </g>
    <g id="text_54">
     <text style="fill:#262626;font-family:Arial;font-size:10.0px;font-style:normal;font-weight:400;text-anchor:start;" transform="rotate(-0.000000, 346.336875, 98.900781)" x="346.336875" y="98.90078125">SNA Epr max</text>
    </g>
   </g>
  </g>
 </g>
 <defs>
  <clipPath id="p08b5a07164">
   <rect height="223.2" width="334.8" x="87.22125" y="11.77265625"/>
  </clipPath>
 </defs>
</svg>
